<svg width="189" height="41" viewBox="0 0 189 41" fill="none" xmlns="http://www.w3.org/2000/svg">
<path d="M0 26V0.0399985H1.32V26H0ZM2.64 26V0.0399985H6.6V26H2.64ZM7.92 26V0.0399985H11.88V26H7.92ZM13.2 26V0.0399985H14.52V26H13.2ZM18.48 26V0.0399985H19.8V26H18.48ZM7.436 29.828H10.692C11.7773 29.828 12.584 30.1067 13.112 30.664C13.6693 31.192 13.948 31.8813 13.948 32.732C13.948 33.5533 13.684 34.228 13.156 34.756C12.628 35.284 11.836 35.548 10.78 35.548H8.624V40.036H7.436V29.828ZM10.648 34.536C11.3813 34.536 11.9093 34.3747 12.232 34.052C12.584 33.7587 12.76 33.3333 12.76 32.776C12.76 32.2187 12.584 31.7787 12.232 31.456C11.88 31.104 11.3667 30.928 10.692 30.928H8.624V34.536H10.648ZM21.1406 26V0.0399985H25.1006V26H21.1406ZM29.0606 26V0.0399985H30.3806V26H29.0606ZM31.7006 26V0.0399985H33.0206V26H31.7006ZM34.3406 26V0.0399985H35.6606V26H34.3406ZM36.9806 26V0.0399985H40.9406V26H36.9806ZM31.7006 40.212C30.6446 40.212 29.838 39.8893 29.2806 39.244C28.7233 38.5987 28.4446 37.6893 28.4446 36.516V29.828H29.7206V29.96C29.6326 30.0187 29.5886 30.092 29.5886 30.18C29.5593 30.2387 29.5446 30.3707 29.5446 30.576V36.516C29.5446 37.396 29.7206 38.0707 30.0726 38.54C30.3953 39.0093 30.9526 39.244 31.7446 39.244C32.5073 39.244 33.0646 39.0093 33.4166 38.54C33.7686 38.0707 33.9446 37.3813 33.9446 36.472V29.828H35.0446V36.472C35.0446 37.7333 34.7513 38.672 34.1646 39.288C33.578 39.904 32.7566 40.212 31.7006 40.212ZM42.2812 26V0.0399985H46.2413V26H42.2812ZM47.5613 26V0.0399985H48.8813V26H47.5613ZM50.2013 26V0.0399985H51.5213V26H50.2013ZM52.8413 26V0.0399985H56.8013V26H52.8413ZM60.7613 26V0.0399985H62.0813V26H60.7613ZM49.6733 29.828H52.6653C53.8386 29.828 54.6893 30.092 55.2172 30.62C55.7746 31.1187 56.0533 31.8373 56.0533 32.776C56.0533 33.3627 55.8626 33.92 55.4813 34.448C55.0999 34.976 54.6013 35.328 53.9853 35.504L56.3613 40.036H55.0853L52.7973 35.548H50.8173V40.036H49.6733V29.828ZM52.7973 34.536C53.5013 34.536 54.0293 34.3747 54.3813 34.052C54.7039 33.7587 54.8653 33.3333 54.8653 32.776C54.8653 32.2187 54.7039 31.764 54.3813 31.412C54.0293 31.0893 53.5013 30.928 52.7973 30.928H50.8173V34.536H52.7973ZM63.4219 26V0.0399985H67.3819V26H63.4219ZM68.7019 26V0.0399985H70.0219V26H68.7019ZM71.3419 26V0.0399985H75.3019V26H71.3419ZM79.2619 26V0.0399985H80.5819V26H79.2619ZM81.9019 26V0.0399985H83.2219V26H81.9019ZM70.8579 29.828H77.1059V30.84H71.9139V34.184H76.2259V35.24H71.9139V39.024H77.0619V40.036H70.8579V29.828ZM84.5625 26V0.0399985H88.5225V26H84.5625ZM89.8425 26V0.0399985H93.8025V26H89.8425ZM95.1225 26V0.0399985H96.4425V26H95.1225ZM100.403 26V0.0399985H101.723V26H100.403ZM103.043 26V0.0399985H104.363V26H103.043ZM95.6945 40.212C94.9318 40.212 94.2572 40.0213 93.6705 39.64C93.0545 39.2587 92.5705 38.6867 92.2185 37.924C91.8665 37.132 91.6905 36.1493 91.6905 34.976C91.6905 33.744 91.8812 32.732 92.2625 31.94C92.6438 31.1773 93.1278 30.62 93.7145 30.268C94.3012 29.9453 94.9318 29.784 95.6065 29.784C96.3398 29.784 96.9705 29.96 97.4985 30.312C98.0265 30.664 98.4225 31.148 98.6865 31.764L97.7185 32.248L97.5865 32.292L97.5425 32.204V32.072C97.5425 31.9547 97.4692 31.7933 97.3225 31.588C97.0878 31.2653 96.8238 31.0307 96.5305 30.884C96.2372 30.7373 95.9292 30.664 95.6065 30.664C94.7265 30.664 94.0372 31.0453 93.5385 31.808C93.0692 32.5413 92.8345 33.5827 92.8345 34.932C92.8345 35.7533 92.9518 36.5013 93.1865 37.176C93.4505 37.8213 93.7878 38.32 94.1985 38.672C94.6385 39.024 95.1225 39.2 95.6505 39.2C96.0612 39.2 96.4425 39.0973 96.7945 38.892C97.1758 38.6573 97.4838 38.3493 97.7185 37.968L98.5545 38.54C98.2025 39.0973 97.8065 39.508 97.3665 39.772C96.8972 40.0653 96.3398 40.212 95.6945 40.212ZM105.703 26V0.0399985H109.663V26H105.703ZM113.623 26V0.0399985H114.943V26H113.623ZM116.263 26V0.0399985H120.223V26H116.263ZM121.543 26V0.0399985H122.863V26H121.543ZM124.183 26V0.0399985H125.503V26H124.183ZM115.779 36.032L112.611 29.828H113.931L116.439 34.8L118.683 29.828H119.915L117.011 36.032V40.036H115.779V36.032ZM126.844 26V0.0399985H130.804V26H126.844ZM132.124 26V0.0399985H136.084V26H132.124ZM137.404 26V0.0399985H138.724V26H137.404ZM142.684 26V0.0399985H144.004V26H142.684ZM145.324 26V0.0399985H146.644V26H145.324ZM137.976 40.212C137.213 40.212 136.538 40.0213 135.952 39.64C135.336 39.2587 134.852 38.6867 134.5 37.924C134.148 37.132 133.972 36.1493 133.972 34.976C133.972 33.744 134.162 32.732 134.544 31.94C134.925 31.1773 135.409 30.62 135.996 30.268C136.582 29.9453 137.213 29.784 137.888 29.784C138.621 29.784 139.252 29.96 139.78 30.312C140.308 30.664 140.704 31.148 140.968 31.764L140 32.248L139.868 32.292L139.824 32.204V32.072C139.824 31.9547 139.75 31.7933 139.604 31.588C139.369 31.2653 139.105 31.0307 138.812 30.884C138.518 30.7373 138.21 30.664 137.888 30.664C137.008 30.664 136.318 31.0453 135.82 31.808C135.35 32.5413 135.116 33.5827 135.116 34.932C135.116 35.7533 135.233 36.5013 135.468 37.176C135.732 37.8213 136.069 38.32 136.48 38.672C136.92 39.024 137.404 39.2 137.932 39.2C138.342 39.2 138.724 39.0973 139.076 38.892C139.457 38.6573 139.765 38.3493 140 37.968L140.836 38.54C140.484 39.0973 140.088 39.508 139.648 39.772C139.178 40.0653 138.621 40.212 137.976 40.212ZM147.984 26V0.0399985H149.304V26H147.984ZM150.624 26V0.0399985H154.584V26H150.624ZM155.904 26V0.0399985H157.224V26H155.904ZM158.544 26V0.0399985H159.864V26H158.544ZM163.824 26V0.0399985H167.784V26H163.824ZM155.552 29.828H156.872V29.96C156.814 30.0187 156.77 30.092 156.74 30.18C156.74 30.2387 156.74 30.3707 156.74 30.576V39.068H161.624V40.036H155.552V29.828ZM169.125 26V0.0399985H173.085V26H169.125ZM174.405 26V0.0399985H175.725V26H174.405ZM177.045 26V0.0399985H181.005V26H177.045ZM184.965 26V0.0399985H186.285V26H184.965ZM187.605 26V0.0399985H188.925V26H187.605ZM176.561 29.828H182.809V30.84H177.617V34.184H181.929V35.24H177.617V39.024H182.765V40.036H176.561V29.828Z" fill="white"/>
</svg>
